<svg width="24" height="25" viewBox="0 0 24 25" fill="none" xmlns="http://www.w3.org/2000/svg">
<path d="M10.7939 20.7558H6.91254C6.22889 20.7558 5.62242 20.733 5.08212 20.6533C2.18212 20.3228 1.39923 18.9098 1.39923 15.0582V9.36048C1.39923 5.50885 2.18212 4.09583 5.08212 3.76536C5.62242 3.68559 6.22889 3.6628 6.91254 3.6628H10.7277M15.2046 3.6628H16.8365C17.5201 3.6628 18.1266 3.68559 18.6669 3.76536C21.5669 4.09583 22.3498 5.50885 22.3498 9.36048V15.0582C22.3498 18.9098 21.5669 20.3228 18.6669 20.6533C18.1266 20.733 17.5201 20.7558 16.8365 20.7558H15.2046M15.1825 0.813965V23.6047M10.876 12.2093H10.8859M6.46539 12.2093H6.47529" stroke="#292D32" stroke-width="1.5" stroke-linecap="round" stroke-linejoin="round"/>
</svg>
